<mxfile host="app.diagrams.net" agent="Mozilla/5.0 (Windows NT 10.0; Win64; x64) AppleWebKit/537.36 (KHTML, like Gecko) Chrome/128.0.0.0 Safari/537.36 Edg/128.0.0.0" version="24.7.14">
  <diagram name="Page-1" id="bFxCE_58FyMwWJkOTZPC">
    <mxGraphModel dx="1114" dy="1211" grid="0" gridSize="10" guides="1" tooltips="1" connect="1" arrows="1" fold="1" page="0" pageScale="1" pageWidth="827" pageHeight="1169" math="0" shadow="0">
      <root>
        <mxCell id="0" />
        <mxCell id="1" parent="0" />
        <mxCell id="SOd7nhnAjg3CMzkoHXqN-1" value="Actor" style="shape=umlActor;verticalLabelPosition=bottom;verticalAlign=top;html=1;outlineConnect=0;" vertex="1" parent="1">
          <mxGeometry x="-76" y="49" width="30" height="60" as="geometry" />
        </mxCell>
        <mxCell id="SOd7nhnAjg3CMzkoHXqN-2" value="" style="swimlane;startSize=0;" vertex="1" parent="1">
          <mxGeometry x="11" y="-28" width="121" height="227" as="geometry" />
        </mxCell>
        <mxCell id="SOd7nhnAjg3CMzkoHXqN-6" value="" style="dashed=0;outlineConnect=0;html=1;align=center;labelPosition=center;verticalLabelPosition=bottom;verticalAlign=top;shape=mxgraph.webicons.github;gradientColor=#DFDEDE" vertex="1" parent="SOd7nhnAjg3CMzkoHXqN-2">
          <mxGeometry x="13.65" y="49" width="93.7" height="102.4" as="geometry" />
        </mxCell>
        <mxCell id="SOd7nhnAjg3CMzkoHXqN-12" value="CodeQL" style="shape=ext;margin=3;double=1;whiteSpace=wrap;html=1;align=center;" vertex="1" parent="SOd7nhnAjg3CMzkoHXqN-2">
          <mxGeometry x="13.650000000000006" y="169" width="100" height="40" as="geometry" />
        </mxCell>
        <mxCell id="SOd7nhnAjg3CMzkoHXqN-3" value="" style="whiteSpace=wrap;html=1;aspect=fixed;" vertex="1" parent="1">
          <mxGeometry x="219" y="-21" width="220" height="220" as="geometry" />
        </mxCell>
        <mxCell id="SOd7nhnAjg3CMzkoHXqN-4" style="edgeStyle=none;curved=1;rounded=0;orthogonalLoop=1;jettySize=auto;html=1;exitX=1;exitY=0.5;exitDx=0;exitDy=0;fontSize=12;startSize=8;endSize=8;" edge="1" parent="1" source="SOd7nhnAjg3CMzkoHXqN-3" target="SOd7nhnAjg3CMzkoHXqN-3">
          <mxGeometry relative="1" as="geometry" />
        </mxCell>
        <mxCell id="SOd7nhnAjg3CMzkoHXqN-5" value="" style="outlineConnect=0;dashed=0;verticalLabelPosition=bottom;verticalAlign=top;align=center;html=1;shape=mxgraph.aws3.ec2;fillColor=#F58534;gradientColor=none;" vertex="1" parent="1">
          <mxGeometry x="257" y="29" width="74" height="95" as="geometry" />
        </mxCell>
        <mxCell id="SOd7nhnAjg3CMzkoHXqN-8" value="" style="sketch=0;aspect=fixed;pointerEvents=1;shadow=0;dashed=0;html=1;strokeColor=none;labelPosition=center;verticalLabelPosition=bottom;verticalAlign=top;align=center;fillColor=#00188D;shape=mxgraph.mscae.enterprise.code_file" vertex="1" parent="1">
          <mxGeometry x="150" y="51.5" width="49" height="50" as="geometry" />
        </mxCell>
        <mxCell id="SOd7nhnAjg3CMzkoHXqN-9" value="Terraform" style="text;html=1;align=center;verticalAlign=middle;whiteSpace=wrap;rounded=0;fontSize=16;" vertex="1" parent="1">
          <mxGeometry x="145" y="102" width="60" height="30" as="geometry" />
        </mxCell>
        <mxCell id="SOd7nhnAjg3CMzkoHXqN-10" value="Engineer pushes code Terraform to GitHub" style="text;html=1;align=center;verticalAlign=middle;whiteSpace=wrap;rounded=0;fontSize=16;" vertex="1" parent="1">
          <mxGeometry x="-75" y="164" width="49" height="30" as="geometry" />
        </mxCell>
        <mxCell id="SOd7nhnAjg3CMzkoHXqN-13" value="GitHub Actions running SAST using CodeQL in workflow" style="text;strokeColor=none;align=center;fillColor=none;html=1;verticalAlign=middle;whiteSpace=wrap;rounded=0;fontSize=16;" vertex="1" parent="1">
          <mxGeometry x="12" y="223" width="119" height="42" as="geometry" />
        </mxCell>
      </root>
    </mxGraphModel>
  </diagram>
</mxfile>
